<svg width="16" height="16" viewBox="0 0 16 16" fill="none" xmlns="http://www.w3.org/2000/svg">
<path d="M15.1667 3.3335H8.5405C8.5186 3.33357 8.49691 3.32929 8.47669 3.3209C8.45646 3.31251 8.43811 3.30019 8.42269 3.28464L6.7156 1.57756C6.6384 1.49994 6.54656 1.4384 6.44541 1.39651C6.34426 1.35461 6.23581 1.3332 6.12633 1.3335H1.50008C1.27914 1.33375 1.06733 1.42162 0.9111 1.57785C0.754873 1.73408 0.666996 1.94589 0.666748 2.16683V13.1668C0.666996 13.3878 0.754873 13.5996 0.9111 13.7558C1.06733 13.912 1.27914 13.9999 1.50008 14.0002H15.1667C15.3877 13.9999 15.5995 13.912 15.7557 13.7558C15.912 13.5996 15.9998 13.3878 16.0001 13.1668V4.16683C15.9998 3.94589 15.912 3.73408 15.7557 3.57785C15.5995 3.42162 15.3877 3.33375 15.1667 3.3335ZM10.3334 8.66683H8.66675V10.3335C8.66675 10.4219 8.63163 10.5067 8.56912 10.5692C8.50661 10.6317 8.42182 10.6668 8.33341 10.6668C8.24501 10.6668 8.16022 10.6317 8.09771 10.5692C8.0352 10.5067 8.00008 10.4219 8.00008 10.3335V8.66683H6.33342C6.24501 8.66683 6.16022 8.63171 6.09771 8.5692C6.0352 8.50669 6.00008 8.4219 6.00008 8.3335C6.00008 8.24509 6.0352 8.16031 6.09771 8.0978C6.16022 8.03529 6.24501 8.00017 6.33342 8.00017H8.00008V6.3335C8.00008 6.24509 8.0352 6.16031 8.09771 6.0978C8.16022 6.03528 8.24501 6.00017 8.33341 6.00017C8.42182 6.00017 8.50661 6.03528 8.56912 6.0978C8.63163 6.16031 8.66675 6.24509 8.66675 6.3335V8.00017H10.3334C10.4218 8.00017 10.5066 8.03529 10.5691 8.0978C10.6316 8.16031 10.6667 8.24509 10.6667 8.3335C10.6667 8.4219 10.6316 8.50669 10.5691 8.5692C10.5066 8.63171 10.4218 8.66683 10.3334 8.66683Z" fill="#3E3D40"/>
</svg>
