<?xml version="1.0" standalone="no"?><!DOCTYPE svg PUBLIC "-//W3C//DTD SVG 1.1//EN" "http://www.w3.org/Graphics/SVG/1.1/DTD/svg11.dtd"><svg t="1726644303990" class="icon" viewBox="0 0 1024 1024" version="1.1" xmlns="http://www.w3.org/2000/svg" p-id="5219" xmlns:xlink="http://www.w3.org/1999/xlink" width="32" height="32"><path d="M460.300157 984.669149l20.544387-42.592538 30.032928 81.923389 25.267477-81.923389 23.700174 24.568545 33.188715-58.985687h-162.766609l30.032928 77.00968zM524.390171 100.032101V0h-28.296186v102.616034c-34.777199 26.771242-118.077273 103.590304-156.306776 249.010672h344.044346C644.246546 202.055101 556.731695 124.410027 524.390171 100.032101zM525.279722 710.390999a18.362869 18.362869 0 0 0-7.116406-5.273766 22.535286 22.535286 0 0 0-16.710846 0 19.485398 19.485398 0 0 0-7.179946 5.210226 25.606354 25.606354 0 0 0-4.934889 9.340283 45.451808 45.451808 0 0 0-1.90618 13.830396 44.477538 44.477538 0 0 0 1.842641 13.703318 27.110118 27.110118 0 0 0 4.87135 9.234384 18.617027 18.617027 0 0 0 7.074046 5.273765 21.899892 21.899892 0 0 0 8.471912 1.694383 21.582196 21.582196 0 0 0 8.471912-1.715562 18.701746 18.701746 0 0 0 7.074046-5.358485 27.004219 27.004219 0 0 0 5.019608-9.721519 47.273269 47.273269 0 0 0 1.630843-13.152643 44.350459 44.350459 0 0 0-1.885-13.788037 26.750062 26.750062 0 0 0-4.723091-9.276743zM287.600232 504.205841S170.666667 532.057252 170.666667 651.659469c0 204.829652 132.733681 299.842144 132.73368 299.842144s-9.488541-58.985687 48.988831-131.081658c-56.888889-165.477621-64.788947-316.214114-64.788946-316.214114z" fill="#1296db" p-id="5220"></path><path d="M690.249028 379.689915H333.412096a634.419128 634.419128 0 0 0-13.49152 131.187557c0 108.143956 78.365186 368.739969 78.365186 368.739968h227.492016s78.089849-262.205676 78.089848-368.697609a630.500869 630.500869 0 0 0-13.618598-131.229916z m-235.667411 326.168611h-28.126748v72.689004h-23.297758v-72.773723H375.072723V688.342848h79.530073z m89.188053 61.802598q-12.347812 12.707868-34.141805 12.707867t-34.078266-12.707867q-12.347812-12.707868-12.347812-34.226525t12.347812-34.353603q12.347812-12.707868 34.078266-12.707868t34.078266 12.707868q12.411351 12.707868 12.411351 34.353603t-12.347812 34.226525z m-32.129726-177.677174c-40.241582 0-72.689005-33.739389-72.689005-75.357657s32.532142-75.378837 72.689005-75.378837 72.689005 33.739389 72.689004 75.378837-32.447423 75.357657-72.583105 75.357657z m134.449243 138.642839a26.326466 26.326466 0 0 1-6.057417 9.721519 36.958716 36.958716 0 0 1-12.008936 8.048316 43.566807 43.566807 0 0 1-16.477868 2.816911h-14.46579v29.355175h-23.297758V688.342848h38.398941a60.552991 60.552991 0 0 1 14.48697 1.482584 34.226524 34.226524 0 0 1 10.441631 4.447754 23.933151 23.933151 0 0 1 8.323654 9.128485 28.82568 28.82568 0 0 1 2.88045 13.385621 34.120625 34.120625 0 0 1-2.117978 11.839497z" fill="#1296db" p-id="5221"></path><path d="M617.454124 706.853975a21.603376 21.603376 0 0 0-7.074046-1.588483q-3.452304-0.148258-9.192025-0.148259h-4.002978v26.919501h6.650451a54.220237 54.220237 0 0 0 9.785058-0.720113 13.872756 13.872756 0 0 0 6.353934-2.90163 11.161744 11.161744 0 0 0 3.240506-4.617192 18.871184 18.871184 0 0 0 0.99545-6.544552 10.58989 10.58989 0 0 0-2.117978-6.544552 11.182924 11.182924 0 0 0-4.638372-3.85472zM736.399768 504.205841s-7.900058 150.736494-64.788946 316.235294c58.477372 72.011252 48.988831 131.060478 48.988831 131.060478s132.733681-95.033673 132.73368-299.842144c0-119.602217-116.933565-147.453628-116.933565-147.453628z" fill="#1296db" p-id="5222"></path></svg>